# Export of Main
# from Aaro4130 OBJ Exporter v2.0
mtllib Note.mtl
g Note
v 1.208234 0.9552405 12.02859
v 0.9564258 0.9552405 12.26518
v 1.550106 0.9455032 12.39244
v 1.298298 0.9455031 12.62903
v 0.9564258 0.9552405 12.26518
v 0.9564764 0.9687304 12.26523
v 1.298298 0.9455031 12.62903
v 1.298349 0.958993 12.62909
v 0.9564764 0.9687304 12.26523
v 1.208284 0.9687304 12.02864
v 1.298349 0.958993 12.62909
v 1.550157 0.9589931 12.39249
v 1.208284 0.9687304 12.02864
v 1.208234 0.9552405 12.02859
v 1.550157 0.9589931 12.39249
v 1.550106 0.9455032 12.39244
v 1.550106 0.9455032 12.39244
v 1.298298 0.9455031 12.62903
v 1.550157 0.9589931 12.39249
v 1.298349 0.958993 12.62909
v 1.208284 0.9687304 12.02864
v 0.9564764 0.9687304 12.26523
v 1.208234 0.9552405 12.02859
v 0.9564258 0.9552405 12.26518
vn -0.007708958 -0.5772406 -0.008204743
vn -0.007708958 -0.5772406 -0.008204743
vn -0.007708958 -0.5772406 -0.008204743
vn -0.007708958 -0.5772406 -0.008204743
vn -0.4207599 -5.161914E-08 0.3953409
vn -0.4207599 -5.161914E-08 0.3953409
vn -0.4207599 -5.161914E-08 0.3953409
vn -0.4207599 -5.161913E-08 0.3953409
vn 0.007708958 0.5772406 0.008204743
vn 0.007708958 0.5772406 0.008204743
vn 0.007708958 0.5772406 0.008204743
vn 0.007708958 0.5772406 0.008204743
vn 0.4207599 5.161913E-08 -0.3953409
vn 0.4207599 5.161914E-08 -0.3953409
vn 0.4207599 5.161914E-08 -0.3953409
vn 0.4207599 5.161914E-08 -0.3953409
vn 0.395335 -0.003161819 0.4207537
vn 0.395335 -0.003161819 0.4207537
vn 0.395335 -0.003161819 0.4207537
vn 0.395335 -0.003161819 0.4207537
vn -0.395335 0.003159634 -0.4207536
vn -0.395335 0.003159634 -0.4207536
vn -0.395335 0.003159634 -0.4207536
vn -0.395335 0.003159634 -0.4207536
vt 0 0
vt -0.3455207 0
vt 0 0.4993606
vt -0.3455207 0.4993606
vt -0.8900652 0
vt -0.903554 -0.0001892362
vt -0.8900652 0.4993606
vt -0.903554 0.4991714
vt 0.3455207 -0.0001892362
vt 0 -0.0001892362
vt 0.3455207 0.4991714
vt 0 0.4991714
vt 0.903554 -0.0001892362
vt 0.8900652 0
vt 0.903554 0.4991714
vt 0.8900652 0.4993606
vt 0 -0.8829747
vt 0.3455207 -0.8829747
vt 0 -0.8964648
vt 0.3455207 -0.8964648
vt 0 -0.9034677
vt -0.3455207 -0.9034677
vt 0 -0.8899776
vt -0.3455207 -0.8899776
usemtl Default_Prototype
f 3/3/3 2/2/2 1/1/1
f 3/3/3 4/4/4 2/2/2
f 7/7/7 6/6/6 5/5/5
f 7/7/7 8/8/8 6/6/6
f 11/11/11 10/10/10 9/9/9
f 11/11/11 12/12/12 10/10/10
f 15/15/15 14/14/14 13/13/13
f 15/15/15 16/16/16 14/14/14
f 19/19/19 18/18/18 17/17/17
f 19/19/19 20/20/20 18/18/18
f 23/23/23 22/22/22 21/21/21
f 23/23/23 24/24/24 22/22/22
